<svg width="18" height="18" viewBox="0 0 18 18" fill="none" xmlns="http://www.w3.org/2000/svg">
<path d="M17.3234 12.5746L12.8964 10.5937C12.7248 10.5194 12.5374 10.4891 12.3511 10.5054C12.1648 10.5218 11.9856 10.5843 11.8295 10.6874C11.8171 10.6953 11.8052 10.7041 11.7939 10.7137L9.46889 12.6956C9.41715 12.7271 9.35842 12.7454 9.29792 12.7489C9.23741 12.7523 9.17699 12.7407 9.12201 12.7152C7.59949 11.9802 6.02353 10.4165 5.28852 8.91176C5.26252 8.8572 5.25045 8.79704 5.2534 8.73667C5.25634 8.6763 5.27421 8.6176 5.3054 8.56582L7.29292 6.20236C7.3023 6.19111 7.31074 6.17892 7.31917 6.16673C7.42192 6.01092 7.48428 5.83199 7.50065 5.64607C7.51701 5.46016 7.48687 5.27309 7.41293 5.10172L5.42821 0.682294C5.3324 0.45846 5.16655 0.271752 4.95558 0.150206C4.7446 0.0286611 4.49989 -0.0211601 4.25819 0.00822439C3.0784 0.163776 1.99557 0.743479 1.21196 1.63906C0.428349 2.53464 -0.00245624 3.68484 1.0535e-05 4.87484C1.0535e-05 12.1124 5.88759 18 13.1252 18C14.3152 18.0025 15.4654 17.5717 16.361 16.788C17.2566 16.0044 17.8363 14.9216 17.9918 13.7418C18.021 13.5012 17.9717 13.2576 17.8512 13.0473C17.7308 12.837 17.5457 12.6712 17.3234 12.5746ZM17.2502 13.6481C17.1179 14.6472 16.6261 15.5639 15.8669 16.2269C15.1077 16.8898 14.1331 17.2535 13.1252 17.25C6.30197 17.25 0.750021 11.698 0.750021 4.87484C0.746529 3.86697 1.11024 2.89232 1.77315 2.13313C2.43607 1.37394 3.3528 0.882183 4.35194 0.749795C4.36693 0.748864 4.38196 0.748864 4.39695 0.749795C4.47093 0.750426 4.54307 0.772926 4.60429 0.814465C4.66552 0.856003 4.71309 0.914724 4.74101 0.983236L6.7201 5.40266C6.74319 5.45667 6.75327 5.51536 6.74953 5.57398C6.74578 5.6326 6.72832 5.68953 6.69854 5.74016L4.71195 8.10269C4.70258 8.11488 4.6932 8.12613 4.68476 8.13925C4.57893 8.3011 4.51659 8.4875 4.50378 8.68045C4.49098 8.87341 4.52812 9.06641 4.61164 9.24083C5.42634 10.9087 7.10636 12.5765 8.79294 13.3912C8.96855 13.4742 9.16265 13.5103 9.35635 13.496C9.55005 13.4817 9.73674 13.4175 9.89827 13.3096L9.93296 13.2834L12.2608 11.3034C12.3106 11.2729 12.3669 11.2548 12.4251 11.2504C12.4833 11.246 12.5417 11.2555 12.5955 11.278L17.0215 13.2618C17.0962 13.2929 17.1588 13.3473 17.2001 13.4169C17.2413 13.4865 17.2589 13.5676 17.2502 13.6481Z" fill="#090222"/>
</svg>
