<svg width="16" height="16" viewBox="0 0 16 16" fill="none" xmlns="http://www.w3.org/2000/svg">
<rect width="16" height="16" rx="3" fill="#023761"/>
<path d="M5.59955 6H2V6.59664H5.59955V6Z" fill="white"/>
<path d="M11.9418 7.93157H13.3265V8.68526H6.88106V7.93157H8.85881C9.63538 7.93157 9.78849 7.19327 9.78849 6.96756C9.78849 6.47036 9.53239 6 8.85525 6H6.28482V6.59664H8.80159C9.18041 6.59664 9.19185 6.93323 9.19185 6.96756C9.19185 7.15894 9.04664 7.3156 8.8592 7.33493L6.88146 7.33217V7.33138H6.28482V7.93197V8.68565H2.59373V7.93197H5.60019V7.33533H2.00064V9.28229H14.0001V7.33138H11.9422V7.93197L11.9418 7.93157Z" fill="white"/>
<path d="M12.0753 6C11.4673 6 11.0044 6.14166 10.6832 6.42064C10.362 6.70002 10.2049 6.97151 10.2049 7.51842V7.93157H10.9507V7.51842C10.9507 7.1475 11.0462 7.01728 11.2376 6.84918C11.429 6.68069 11.7273 6.59664 12.1251 6.59664H13.9994V6H12.0753Z" fill="white"/>
</svg>
