<svg width="197" height="42" viewBox="0 0 197 42" fill="none" xmlns="http://www.w3.org/2000/svg">
<path d="M36.7702 4.03076H0V10.1255H36.7702V4.03076Z" fill="white"/>
<path d="M101.555 23.7622H115.7V31.4613H49.8587V23.7622H70.0617C77.9946 23.7622 79.5586 16.2203 79.5586 13.9146C79.5586 8.83564 76.9425 4.03076 70.0255 4.03076H43.7679V10.1255H69.4772C73.347 10.1255 73.4639 13.5639 73.4639 13.9146C73.4639 15.8696 71.9805 17.4699 70.0658 17.6674L49.8627 17.6392V17.6311H43.7679V23.7662V31.4653H6.06253V23.7662H36.7742V17.6715H0.00402832V37.5601H122.581V17.6311H101.559V23.7662L101.555 23.7622Z" fill="white"/>
<path d="M102.922 4.03076C96.7103 4.03076 91.982 5.47787 88.7008 8.32774C85.4196 11.1816 83.8153 13.9549 83.8153 19.5418V23.7622H91.4338V19.5418C91.4338 15.7527 92.4093 14.4225 94.3643 12.7053C96.3193 10.9841 99.3667 10.1255 103.43 10.1255H122.577V4.03076H102.922Z" fill="white"/>
<path d="M133.742 0H131.82V41.5831H133.742V0Z" fill="white"/>
<path d="M151.067 14.5478H143.598V10.4121H150.023V8.85613H143.598V4.92193H150.814V3.32568H141.768V16.1441H151.067V14.5478Z" fill="white"/>
<path d="M162.987 16.1442V10.5613C162.987 9.61003 162.818 8.824 162.475 8.1992C162.132 7.57441 161.661 7.11488 161.056 6.80853C160.452 6.5062 159.75 6.35303 158.96 6.35303C158.081 6.35303 157.311 6.53039 156.654 6.88511C156.146 7.15922 155.772 7.54216 155.465 7.98153V6.44574H153.78V16.1482H155.538V11.1499C155.538 10.4444 155.663 9.85188 155.913 9.37623C156.163 8.90058 156.521 8.54183 156.985 8.29594C157.448 8.05006 157.993 7.92913 158.613 7.92913C159.444 7.92913 160.089 8.16696 160.544 8.64261C161 9.11826 161.229 9.8277 161.229 10.7669V16.1482H162.987V16.1442Z" fill="white"/>
<path d="M176.204 10.1862C176.632 9.52111 176.845 8.72702 176.845 7.79588C176.845 6.86473 176.632 6.07063 176.204 5.39746C175.777 4.72833 175.164 4.2164 174.374 3.86168C173.58 3.51099 172.621 3.32959 171.5 3.32959H166.502V16.1439H168.332V12.2621H171.5C172.621 12.2621 173.58 12.0848 174.374 11.722C175.164 11.3633 175.777 10.8473 176.204 10.1862ZM174.108 9.92018C173.504 10.42 172.617 10.6699 171.444 10.6699H168.332V4.92182H171.444C172.617 4.92182 173.504 5.17174 174.108 5.67158C174.713 6.17141 175.015 6.88085 175.015 7.79184C175.015 8.70283 174.713 9.41632 174.108 9.91615V9.92018Z" fill="white"/>
<path d="M180.8 8.14252V6.43744H179.115V16.1399H180.872V11.3068C180.872 10.2426 181.146 9.43242 181.699 8.87212C182.247 8.31182 182.993 8.03369 183.932 8.03369H184.125C184.19 8.03369 184.262 8.03772 184.335 8.04982V6.34473C183.408 6.34473 182.626 6.52209 181.993 6.87681C181.453 7.17913 181.078 7.61447 180.804 8.14252H180.8Z" fill="white"/>
<path d="M190.555 16.253C191.518 16.253 192.385 16.0394 193.146 15.6121C193.908 15.1848 194.505 14.6003 194.94 13.8546C195.376 13.1129 195.593 12.2543 195.593 11.2909C195.593 10.3275 195.376 9.47298 194.94 8.73129C194.505 7.9896 193.908 7.40511 193.146 6.98186C192.385 6.56265 191.518 6.35303 190.555 6.35303C189.591 6.35303 188.712 6.56668 187.959 6.99396C187.201 7.42124 186.604 8.00169 186.165 8.74338C185.725 9.48104 185.508 10.3316 185.508 11.295C185.508 12.2584 185.725 13.1008 186.165 13.8506C186.604 14.6003 187.205 15.1929 187.967 15.6161C188.729 16.0434 189.595 16.257 190.555 16.257V16.253ZM187.277 11.2909C187.277 10.5976 187.427 9.99699 187.717 9.4891C188.011 8.98523 188.402 8.5902 188.89 8.30803C189.378 8.02587 189.934 7.88479 190.555 7.88479C191.175 7.88479 191.736 8.02587 192.231 8.30803C192.727 8.5902 193.114 8.9812 193.392 9.4891C193.674 9.99699 193.816 10.5976 193.816 11.2909C193.816 11.9842 193.674 12.5768 193.392 13.0968C193.11 13.6168 192.727 14.0118 192.231 14.294C191.74 14.5761 191.179 14.7172 190.555 14.7172C189.93 14.7172 189.378 14.5761 188.89 14.294C188.402 14.0118 188.011 13.6128 187.717 13.0968C187.427 12.5768 187.277 11.9762 187.277 11.2909Z" fill="white"/>
<path d="M143.993 28.1721C144.449 27.7328 144.993 27.3901 145.622 27.1442C146.251 26.9024 146.928 26.7774 147.661 26.7774C148.395 26.7774 149.048 26.8984 149.665 27.1362C150.281 27.374 150.85 27.7489 151.374 28.2608L152.507 27.1241C151.922 26.467 151.209 25.9712 150.366 25.6447C149.524 25.3142 148.597 25.1489 147.581 25.1489C146.565 25.1489 145.666 25.3102 144.836 25.6326C144.005 25.9551 143.284 26.4146 142.663 27.0072C142.046 27.5957 141.567 28.293 141.228 29.0831C140.885 29.8772 140.716 30.7479 140.716 31.6992C140.716 32.6505 140.885 33.5252 141.228 34.3153C141.567 35.1094 142.046 35.8027 142.655 36.3952C143.264 36.9878 143.985 37.4433 144.816 37.7658C145.646 38.0882 146.553 38.2495 147.544 38.2495C148.447 38.2495 149.322 38.1124 150.169 37.8383C151.015 37.5642 151.761 37.1571 152.394 36.621V31.6267H150.636V35.7785C150.306 35.9962 149.963 36.1776 149.6 36.3025C148.971 36.5162 148.314 36.621 147.633 36.621C146.9 36.621 146.222 36.5001 145.602 36.2542C144.977 36.0083 144.441 35.6656 143.981 35.2182C143.522 34.7748 143.171 34.2467 142.917 33.6461C142.667 33.0415 142.542 32.3925 142.542 31.6952C142.542 30.9978 142.667 30.3327 142.917 29.7281C143.167 29.1234 143.522 28.6034 143.981 28.1641L143.993 28.1721Z" fill="white"/>
<path d="M157.332 30.1108V28.4057H155.647V38.1082H157.404V33.2751C157.404 32.2109 157.678 31.4007 158.23 30.8404C158.779 30.2801 159.524 30.002 160.464 30.002H160.657C160.722 30.002 160.794 30.006 160.867 30.0181V28.313C159.94 28.313 159.158 28.4904 158.525 28.8451C157.985 29.1474 157.61 29.5827 157.336 30.1108H157.332Z" fill="white"/>
<path d="M169.674 28.9462C168.912 28.527 168.046 28.3174 167.082 28.3174C166.119 28.3174 165.24 28.531 164.486 28.9583C163.729 29.3856 163.132 29.966 162.693 30.7077C162.253 31.4454 162.036 32.2959 162.036 33.2593C162.036 34.2227 162.253 35.0652 162.693 35.8149C163.132 36.5647 163.733 37.1572 164.495 37.5805C165.256 38.0077 166.123 38.2214 167.082 38.2214C168.042 38.2214 168.912 38.0077 169.674 37.5805C170.436 37.1532 171.033 36.5687 171.468 35.823C171.903 35.0813 172.121 34.2227 172.121 33.2593C172.121 32.2959 171.903 31.4413 171.468 30.6997C171.033 29.958 170.436 29.3735 169.674 28.9502V28.9462ZM169.92 35.0611C169.638 35.5811 169.255 35.9762 168.759 36.2583C168.268 36.5405 167.707 36.6816 167.082 36.6816C166.458 36.6816 165.905 36.5405 165.418 36.2583C164.93 35.9762 164.539 35.5771 164.245 35.0611C163.954 34.5411 163.805 33.9405 163.805 33.2553C163.805 32.57 163.954 31.9613 164.245 31.4534C164.539 30.9496 164.93 30.5545 165.418 30.2724C165.905 29.9902 166.462 29.8491 167.082 29.8491C167.703 29.8491 168.263 29.9902 168.759 30.2724C169.255 30.5545 169.642 30.9455 169.92 31.4534C170.202 31.9613 170.343 32.562 170.343 33.2553C170.343 33.9486 170.202 34.5411 169.92 35.0611Z" fill="white"/>
<path d="M181.84 33.4244C181.84 34.1096 181.719 34.6901 181.473 35.1738C181.227 35.6535 180.88 36.0203 180.429 36.2702C179.977 36.5201 179.445 36.6451 178.837 36.6451C178.006 36.6451 177.361 36.4033 176.902 35.9316C176.446 35.456 176.217 34.7425 176.217 33.7872V28.4059H174.455V33.9887C174.455 34.94 174.632 35.7301 174.979 36.3589C175.326 36.9877 175.813 37.4553 176.442 37.7617C177.071 38.064 177.801 38.2172 178.631 38.2172C179.461 38.2172 180.139 38.0398 180.771 37.6851C181.259 37.415 181.626 37.0281 181.924 36.5806V38.1043H183.589V28.4019H181.832V33.4163L181.84 33.4244Z" fill="white"/>
<path d="M196.359 30.6671C195.932 29.9294 195.351 29.353 194.622 28.9378C193.888 28.5226 193.046 28.313 192.094 28.313C191.264 28.313 190.518 28.4984 189.853 28.8612C189.365 29.1313 188.974 29.5344 188.636 30.006V28.4057H186.951V41.6594H188.708V36.5724C189.043 37.0117 189.422 37.3987 189.889 37.6567C190.555 38.0316 191.288 38.217 192.094 38.217C193.046 38.217 193.888 38.0114 194.622 37.5922C195.351 37.177 195.932 36.6006 196.359 35.8549C196.786 35.1132 197 34.2465 197 33.2549C197 32.2633 196.786 31.4047 196.359 30.6671ZM194.795 35.0608C194.505 35.5808 194.118 35.9758 193.622 36.258C193.126 36.5401 192.57 36.6812 191.945 36.6812C191.32 36.6812 190.784 36.5401 190.288 36.258C189.797 35.9758 189.406 35.5767 189.12 35.0608C188.829 34.5408 188.688 33.9402 188.688 33.2549C188.688 32.5697 188.829 31.961 189.12 31.4531C189.406 30.9492 189.797 30.5542 190.288 30.272C190.784 29.9899 191.337 29.8488 191.945 29.8488C192.554 29.8488 193.126 29.9899 193.622 30.272C194.118 30.5542 194.505 30.9452 194.795 31.4531C195.081 31.961 195.222 32.5616 195.222 33.2549C195.222 33.9482 195.081 34.5408 194.795 35.0608Z" fill="white"/>
</svg>
