<svg width="106" height="23" viewBox="0 0 106 23" fill="none" xmlns="http://www.w3.org/2000/svg">
<path d="M19.785 2.22336H0V5.58517H19.785V2.22336Z" fill="white"/>
<path d="M54.6441 13.107H62.2549V17.3537H26.8275V13.107H37.6982C41.9667 13.107 42.8082 8.94697 42.8082 7.67518C42.8082 4.87367 41.4006 2.22336 37.6787 2.22336H23.5503V5.58517H37.3837C39.4659 5.58517 39.5288 7.48174 39.5288 7.67518C39.5288 8.75354 38.7306 9.63623 37.7004 9.74518L26.8297 9.72961V9.72517H23.5503V13.1092V17.3559H3.2621V13.1092H19.7872V9.74741H0.00219727V20.7178H65.9572V9.72517H54.6463V13.1092L54.6441 13.107Z" fill="white"/>
<path d="M55.3794 2.22336C52.037 2.22336 49.4929 3.02157 47.7274 4.59352C45.9619 6.1677 45.0986 7.69741 45.0986 10.7791V13.107H49.1979V10.7791C49.1979 8.68906 49.7228 7.95533 50.7747 7.00815C51.8267 6.05875 53.4664 5.58517 55.6526 5.58517H65.9551V2.22336H55.3794Z" fill="white"/>
<path d="M71.963 0H70.9284V22.9368H71.963V0Z" fill="white"/>
<path d="M81.285 8.02441H77.266V5.74318H80.7233V4.88494H77.266V2.71488H81.1484V1.83441H76.2813V8.90488H81.285V8.02441Z" fill="white"/>
<path d="M87.6986 8.90481V5.82537C87.6986 5.30064 87.6075 4.86708 87.4231 4.52245C87.2387 4.17782 86.985 3.92435 86.6596 3.75537C86.3343 3.58861 85.9569 3.50412 85.5318 3.50412C85.059 3.50412 84.6447 3.60195 84.2912 3.79761C84.0179 3.94881 83.8162 4.16003 83.6513 4.40238V3.55526H82.7447V8.90703H83.6904V6.14999C83.6904 5.7609 83.7576 5.43405 83.8921 5.17168C84.0266 4.90932 84.2196 4.71144 84.469 4.57581C84.7185 4.44018 85.0113 4.37348 85.3453 4.37348C85.7921 4.37348 86.1391 4.50466 86.3842 4.76703C86.6293 5.02939 86.7529 5.42071 86.7529 5.93877V8.90703H87.6986V8.90481Z" fill="white"/>
<path d="M94.8105 5.61862C95.0404 5.25175 95.1553 4.81374 95.1553 4.30013C95.1553 3.78652 95.0404 3.3485 94.8105 2.97719C94.5806 2.60811 94.2509 2.32573 93.8258 2.13007C93.3985 1.93663 92.8823 1.83658 92.2793 1.83658H89.5899V8.90483H90.5746V6.76368H92.2793C92.8823 6.76368 93.3985 6.66585 93.8258 6.46574C94.2509 6.26785 94.5806 5.98326 94.8105 5.61862ZM93.6826 5.47187C93.3573 5.74757 92.8801 5.88543 92.249 5.88543H90.5746V2.71483H92.249C92.8801 2.71483 93.3573 2.85269 93.6826 3.12839C94.008 3.40409 94.1707 3.79541 94.1707 4.2979C94.1707 4.8004 94.008 5.19395 93.6826 5.46965V5.47187Z" fill="white"/>
<path d="M97.2831 4.49134V3.55084H96.3765V8.9026H97.3221V6.23672C97.3221 5.64974 97.4696 5.20283 97.7668 4.89378C98.0617 4.58472 98.463 4.43131 98.9683 4.43131H99.0724C99.1071 4.43131 99.1462 4.43353 99.1852 4.4402V3.49969C98.6864 3.49969 98.2656 3.59753 97.9251 3.79319C97.6344 3.95994 97.4327 4.20007 97.2852 4.49134H97.2831Z" fill="white"/>
<path d="M102.532 8.96484C103.05 8.96484 103.517 8.847 103.927 8.61131C104.336 8.37563 104.657 8.05324 104.892 7.64191C105.126 7.2328 105.243 6.75921 105.243 6.22781C105.243 5.69641 105.126 5.22505 104.892 4.81594C104.657 4.40683 104.336 4.08444 103.927 3.85098C103.517 3.61974 103.05 3.50412 102.532 3.50412C102.014 3.50412 101.541 3.62197 101.135 3.85765C100.727 4.09333 100.406 4.4135 100.17 4.82261C99.9335 5.2295 99.8164 5.69864 99.8164 6.23003C99.8164 6.76143 99.9335 7.22612 100.17 7.63968C100.406 8.05324 100.73 8.38008 101.139 8.61354C101.549 8.84922 102.016 8.96706 102.532 8.96706V8.96484ZM100.769 6.22781C100.769 5.84538 100.849 5.51409 101.005 5.23394C101.163 4.95601 101.374 4.73812 101.636 4.58248C101.899 4.42684 102.198 4.34902 102.532 4.34902C102.866 4.34902 103.167 4.42684 103.434 4.58248C103.701 4.73812 103.909 4.95379 104.059 5.23394C104.211 5.51409 104.287 5.84538 104.287 6.22781C104.287 6.61024 104.211 6.93708 104.059 7.2239C103.907 7.51072 103.701 7.72862 103.434 7.88426C103.17 8.0399 102.868 8.11771 102.532 8.11771C102.196 8.11771 101.899 8.0399 101.636 7.88426C101.374 7.72862 101.163 7.5085 101.005 7.2239C100.849 6.93708 100.769 6.60579 100.769 6.22781Z" fill="white"/>
<path d="M77.4786 15.5395C77.7236 15.2972 78.0165 15.1082 78.3548 14.9726C78.6932 14.8392 79.0575 14.7702 79.4523 14.7702C79.847 14.7702 80.1984 14.8369 80.5302 14.9681C80.8621 15.0993 81.1679 15.3061 81.4499 15.5885L82.0593 14.9615C81.7448 14.599 81.3609 14.3256 80.9076 14.1455C80.4543 13.9631 79.9555 13.872 79.4089 13.872C78.8623 13.872 78.3787 13.9609 77.9319 14.1388C77.4851 14.3167 77.0968 14.5701 76.7628 14.897C76.431 15.2216 76.1729 15.6062 75.9907 16.042C75.8063 16.48 75.7152 16.9603 75.7152 17.485C75.7152 18.0098 75.8063 18.4922 75.9907 18.928C76.1729 19.3661 76.431 19.7485 76.7585 20.0753C77.086 20.4022 77.4742 20.6534 77.921 20.8313C78.3678 21.0092 78.8558 21.0981 79.3894 21.0981C79.8752 21.0981 80.3459 21.0225 80.8014 20.8713C81.2568 20.7201 81.6581 20.4955 81.9986 20.1998V17.445H81.053V19.7351C80.8751 19.8552 80.6907 19.9553 80.4955 20.0242C80.1572 20.142 79.8037 20.1998 79.4371 20.1998C79.0424 20.1998 78.678 20.1331 78.344 19.9975C78.0078 19.8619 77.7193 19.6729 77.4721 19.4261C77.2248 19.1815 77.0361 18.8902 76.8995 18.5589C76.765 18.2254 76.6977 17.8675 76.6977 17.4828C76.6977 17.0982 76.765 16.7313 76.8995 16.3978C77.0339 16.0643 77.2248 15.7775 77.4721 15.5351L77.4786 15.5395Z" fill="white"/>
<path d="M84.6555 16.609V15.6684H83.7489V21.0202H84.6946V18.3543C84.6946 17.7674 84.8421 17.3205 85.1392 17.0114C85.4342 16.7023 85.8354 16.5489 86.3408 16.5489H86.4449C86.4796 16.5489 86.5186 16.5511 86.5577 16.5578V15.6173C86.0588 15.6173 85.6381 15.7151 85.2975 15.9108C85.0069 16.0776 84.8052 16.3177 84.6577 16.609H84.6555Z" fill="white"/>
<path d="M91.2968 15.9664C90.8869 15.7352 90.4206 15.6195 89.9022 15.6195C89.3838 15.6195 88.911 15.7374 88.5054 15.9731C88.0977 16.2087 87.7767 16.5289 87.5402 16.938C87.3038 17.3449 87.1867 17.8141 87.1867 18.3455C87.1867 18.8768 87.3038 19.3415 87.5402 19.7551C87.7767 20.1686 88.0998 20.4955 88.5097 20.7289C88.9197 20.9646 89.386 21.0825 89.9022 21.0825C90.4184 21.0825 90.8869 20.9646 91.2968 20.7289C91.7068 20.4933 92.0278 20.1709 92.262 19.7595C92.4963 19.3504 92.6134 18.8768 92.6134 18.3455C92.6134 17.8141 92.4963 17.3427 92.262 16.9336C92.0278 16.5245 91.7068 16.2021 91.2968 15.9686V15.9664ZM91.4291 19.3393C91.2773 19.6261 91.0713 19.844 90.8045 19.9997C90.5399 20.1553 90.2384 20.2331 89.9022 20.2331C89.566 20.2331 89.2689 20.1553 89.0064 19.9997C88.744 19.844 88.5336 19.6239 88.3753 19.3393C88.2191 19.0525 88.1389 18.7212 88.1389 18.3432C88.1389 17.9652 88.2191 17.6295 88.3753 17.3494C88.5336 17.0714 88.744 16.8535 89.0064 16.6979C89.2689 16.5423 89.5682 16.4644 89.9022 16.4644C90.2362 16.4644 90.5377 16.5423 90.8045 16.6979C91.0713 16.8535 91.2795 17.0692 91.4291 17.3494C91.581 17.6295 91.6569 17.9608 91.6569 18.3432C91.6569 18.7257 91.581 19.0525 91.4291 19.3393Z" fill="white"/>
<path d="M97.8427 18.4366C97.8427 18.8146 97.7776 19.1348 97.6453 19.4016C97.513 19.6662 97.3264 19.8685 97.0835 20.0063C96.8406 20.1442 96.5543 20.2131 96.2268 20.2131C95.78 20.2131 95.433 20.0797 95.1857 19.8196C94.9406 19.5572 94.817 19.1637 94.817 18.6367V15.6684H93.8692V18.7479C93.8692 19.2726 93.9646 19.7084 94.1511 20.0553C94.3377 20.4021 94.6001 20.66 94.9385 20.829C95.2768 20.9958 95.6694 21.0802 96.1162 21.0802C96.563 21.0802 96.9274 20.9824 97.2679 20.7868C97.5303 20.6378 97.7277 20.4243 97.8882 20.1775V21.018H98.784V15.6662H97.8383V18.4321L97.8427 18.4366Z" fill="white"/>
<path d="M105.655 16.9158C105.425 16.5089 105.113 16.1909 104.72 15.9619C104.326 15.7329 103.872 15.6173 103.36 15.6173C102.914 15.6173 102.512 15.7196 102.154 15.9197C101.892 16.0687 101.682 16.291 101.499 16.5511V15.6684H100.593V22.979H101.538V20.1731C101.719 20.4154 101.922 20.6289 102.174 20.7712C102.532 20.978 102.927 21.0803 103.36 21.0803C103.872 21.0803 104.326 20.9669 104.72 20.7356C105.113 20.5066 105.425 20.1887 105.655 19.7773C105.885 19.3682 106 18.8902 106 18.3432C106 17.7963 105.885 17.3227 105.655 16.9158ZM104.814 19.3393C104.657 19.6261 104.449 19.844 104.182 19.9997C103.916 20.1553 103.616 20.2331 103.28 20.2331C102.944 20.2331 102.655 20.1553 102.389 19.9997C102.124 19.844 101.914 19.6239 101.76 19.3393C101.604 19.0525 101.528 18.7212 101.528 18.3432C101.528 17.9652 101.604 17.6295 101.76 17.3493C101.914 17.0714 102.124 16.8535 102.389 16.6979C102.655 16.5422 102.953 16.4644 103.28 16.4644C103.608 16.4644 103.916 16.5422 104.182 16.6979C104.449 16.8535 104.657 17.0692 104.814 17.3493C104.968 17.6295 105.043 17.9608 105.043 18.3432C105.043 18.7257 104.968 19.0525 104.814 19.3393Z" fill="white"/>
</svg>
